<svg width="262" height="900" viewBox="0 0 262 900" fill="none" xmlns="http://www.w3.org/2000/svg">
<path d="M254.183 45.9068V15.3023L253.371 0H0V900H253.371V869.962L254.589 853.526C255.537 851.071 257.838 844.912 259.462 839.924C261.086 834.937 257.702 828.023 255.807 825.189C256.349 824.433 257.675 821.448 258.65 815.554C259.624 809.66 255.537 802.897 253.371 800.252C252.559 799.685 251.909 796.398 255.807 787.783C259.705 779.169 255.807 774.37 253.371 773.048C252.965 770.214 252.559 764.093 254.183 762.28C256.213 760.013 258.244 748.111 259.056 743.01C259.705 738.93 256.078 731.108 254.183 727.708L253.371 719.773V675.567V648.363C254.048 647.607 255.645 644.962 256.62 640.428C257.594 635.894 254.86 630.605 253.371 628.526C253.507 627.015 253.696 621.952 253.371 613.791C252.965 603.589 256.213 591.688 259.056 578.652C261.898 565.617 255.807 549.748 254.995 544.647C254.183 539.547 258.244 534.446 259.056 532.179C259.705 530.365 259.326 521.599 259.056 517.443C259.597 516.499 260.924 513.589 261.898 509.509C262.873 505.428 256.62 502.141 253.371 501.008V466.436C254.319 466.436 257.107 464.509 260.68 456.801C264.253 449.093 257.296 443.766 253.371 442.065V355.919C262.467 345.038 259.056 329.093 256.213 322.481C257.432 318.514 256.213 299.811 253.371 294.71C251.097 290.63 252.424 282.431 253.371 278.841C259.218 267.96 256.89 261.839 254.995 260.139C264.74 237.015 257.973 216.499 253.371 209.131C255.32 205.504 254.183 192.506 253.371 186.461C252.694 163.791 251.909 116.637 254.183 109.383C256.457 102.128 255.131 72.733 254.183 58.9421C257.756 52.1411 255.672 47.4181 254.183 45.9068Z" fill="#F7EDDC"/>
</svg>
