<svg width="1179.000000" height="25.000000" viewBox="0 0 1179 25" fill="none" xmlns="http://www.w3.org/2000/svg" xmlns:xlink="http://www.w3.org/1999/xlink">
	<desc>
			Created with Pixso.
	</desc>
	<defs>
		<clipPath id="clip41_2448">
			<rect id="фрейм 2" width="1179.000000" height="25.000000" fill="white" fill-opacity="0"/>
		</clipPath>
	</defs>
	<rect id="фрейм 2" width="1179.000000" height="25.000000" fill="#FFFFFF" fill-opacity="0"/>
	<g clip-path="url(#clip41_2448)">
		<path id="Vector 6" d="M20.04 14.73L60.13 14.73C62.11 12.4 68.3 9.14 77.21 14.73C95.28 13.25 133.78 11.17 143.29 14.73C152.79 18.29 214.56 17.06 244.26 16C252.18 14.73 269.21 12.95 273.96 16C283.61 8.8 310.49 -1.79 340.78 13.46C343 10.49 351.02 6.85 365.28 16C369.98 17.48 380.72 19.56 386.07 16C392.75 11.55 417.25 9.64 422.45 11.55C431.11 7.1 452 1.76 466.25 16L579.1 16C581.33 9.86 588.31 -1.03 598.4 4.56C608.5 10.15 611.03 14.52 611.03 16L656.32 16C657.8 10.91 662.11 1.13 667.45 2.65C672.8 4.18 676.61 6.25 677.85 7.1C683.29 6.68 694.77 6.09 697.15 7.1C700.12 8.37 706.8 14.73 713.48 13.46C720.17 12.19 740.95 2.65 758.03 7.1C775.11 11.55 790.7 16.63 804.06 16C814.75 15.49 821.39 15.79 823.37 16C826.09 13.67 833.02 9.39 838.96 10.91C844.9 12.44 848.36 14.94 849.35 16L884.99 16L942.9 16L953.29 14.73C957.75 11.76 967.99 6.09 973.34 7.1C980.02 8.37 995.61 11.55 998.58 14.73C1000.96 17.27 1008.98 16.63 1012.69 16C1014.43 12.19 1020.71 6.09 1032 12.19C1043.28 18.29 1047.59 17.27 1048.32 16C1051.79 12.61 1060.65 6.21 1068.38 7.74C1076.1 9.26 1080.01 11.34 1081 12.19C1084.71 9.22 1093.77 3.93 1100.3 6.47C1106.82 9.01 1114.9 12.61 1118.12 14.09L1139.65 16L1179 16L1179 412.5L0 412.5L0 16L20.04 14.73Z" fill="#F7EDDC" fill-opacity="1.000000" fill-rule="evenodd"/>
	</g>
</svg>
