<svg width="20.000000" height="900.000000" viewBox="0 0 20 900" fill="none" xmlns="http://www.w3.org/2000/svg" xmlns:xlink="http://www.w3.org/1999/xlink">
	<desc>
			Created with Pixso.
	</desc>
	<defs>
		<clipPath id="clip41_2446">
			<rect id="фрейм 1" width="20.000000" height="900.000000" fill="white" fill-opacity="0"/>
		</clipPath>
	</defs>
	<rect id="фрейм 1" width="20.000000" height="900.000000" fill="#FFFFFF" fill-opacity="0"/>
	<g clip-path="url(#clip41_2446)">
		<path id="Vector 4" d="M6.65 15.3L6.65 45.9C5.38 47.41 3.61 52.14 6.65 58.94C5.84 72.73 4.71 102.12 6.65 109.38C8.58 116.63 7.92 163.79 7.34 186.46C6.65 192.5 5.68 205.5 7.34 209.13C3.42 216.49 -2.34 237.01 5.96 260.13C4.34 261.83 2.36 267.96 7.34 278.84C8.15 282.43 9.27 290.63 7.34 294.71C4.92 299.81 3.88 318.51 4.92 322.48C2.5 329.09 -0.4 345.03 7.34 355.91L7.34 442.06C4 443.76 -1.92 449.09 1.12 456.8C4.16 464.5 6.53 466.43 7.34 466.43L7.34 501C4.57 502.14 -0.75 505.42 0.08 509.5C0.91 513.59 2.04 516.49 2.5 517.44C2.27 521.59 1.95 530.36 2.5 532.17C3.19 534.44 6.65 539.54 5.96 544.64C5.27 549.74 0.08 565.61 2.5 578.65C4.92 591.68 7.68 603.59 7.34 613.79C7.06 621.95 7.22 627.01 7.34 628.52C6.07 630.6 3.75 635.89 4.57 640.42C5.4 644.96 6.76 647.6 7.34 648.36L7.34 675.56L7.34 719.77L6.65 727.7C5.04 731.1 1.95 738.93 2.5 743.01C3.19 748.11 4.92 760.01 6.65 762.27C8.03 764.09 7.68 770.21 7.34 773.04C5.27 774.37 1.95 779.16 5.27 787.78C8.58 796.39 8.03 799.68 7.34 800.25C5.5 802.89 2.02 809.66 2.85 815.55C3.68 821.44 4.81 824.43 5.27 825.18C3.65 828.02 0.77 834.93 2.16 839.92C3.54 844.91 5.5 851.07 6.3 853.52L7.34 869.96L7.34 900L223 900L223 0L7.34 0L6.65 15.3Z" fill="#F7EDDC" fill-opacity="1.000000" fill-rule="evenodd"/>
	</g>
</svg>
