<svg width="20.000000" height="900.000000" viewBox="0 0 20 900" fill="none" xmlns="http://www.w3.org/2000/svg" xmlns:xlink="http://www.w3.org/1999/xlink">
	<desc>
			Created with Pixso.
	</desc>
	<defs>
		<clipPath id="clip41_2450">
			<rect id="фрейм 3" width="20.000000" height="900.000000" fill="white" fill-opacity="0"/>
		</clipPath>
	</defs>
	<rect id="фрейм 3" width="20.000000" height="900.000000" fill="#FFFFFF" fill-opacity="0"/>
	<g clip-path="url(#clip41_2450)">
		<path id="Vector 2" d="M13.34 15.3L13.34 45.9C14.61 47.41 16.38 52.14 13.34 58.94C14.15 72.73 15.28 102.12 13.34 109.38C11.41 116.63 12.07 163.79 12.65 186.46C13.34 192.5 14.31 205.5 12.65 209.13C16.57 216.49 22.33 237.01 14.03 260.13C15.65 261.83 17.63 267.96 12.65 278.84C11.84 282.43 10.72 290.63 12.65 294.71C15.07 299.81 16.11 318.51 15.07 322.48C17.49 329.09 20.39 345.03 12.65 355.91L12.65 442.06C15.99 443.76 21.91 449.09 18.87 456.8C15.83 464.5 13.46 466.43 12.65 466.43L12.65 501C15.42 502.14 20.74 505.42 19.91 509.5C19.08 513.59 17.95 516.49 17.49 517.44C17.72 521.59 18.04 530.36 17.49 532.17C16.8 534.44 13.34 539.54 14.03 544.64C14.72 549.74 19.91 565.61 17.49 578.65C15.07 591.68 12.31 603.59 12.65 613.79C12.93 621.95 12.77 627.01 12.65 628.52C13.92 630.6 16.25 635.89 15.42 640.42C14.59 644.96 13.23 647.6 12.65 648.36L12.65 675.56L12.65 719.77L13.34 727.7C14.95 731.1 18.04 738.93 17.49 743.01C16.8 748.11 15.07 760.01 13.34 762.27C11.96 764.09 12.31 770.21 12.65 773.04C14.72 774.37 18.04 779.16 14.72 787.78C11.41 796.39 11.96 799.68 12.65 800.25C14.49 802.89 17.97 809.66 17.14 815.55C16.31 821.44 15.18 824.43 14.72 825.18C16.34 828.02 19.22 834.93 17.83 839.92C16.45 844.91 14.49 851.07 13.69 853.52L12.65 869.96L12.65 900L-203 900L-203 0L12.65 0L13.34 15.3Z" fill="#F7EDDC" fill-opacity="1.000000" fill-rule="evenodd"/>
	</g>
</svg>
