<svg width="1179" height="58" viewBox="0 0 1179 58" fill="none" xmlns="http://www.w3.org/2000/svg">
<path d="M1118.86 50.1833L1158.95 50.1833L1179 49.3712L1179 -204L0 -204L-1.10752e-05 49.3712L39.3495 49.3712L60.8804 50.5893C64.0976 51.5367 72.1655 53.8377 78.699 55.4618C85.2325 57.086 94.2903 53.7023 98.0026 51.8074C98.9924 52.3488 102.903 53.6752 110.624 54.6497C118.345 55.6243 127.205 51.5367 130.67 49.3712C131.412 48.5591 135.719 47.9094 147.004 51.8074C158.289 55.7055 164.575 51.8074 166.307 49.3712C170.02 48.9651 178.038 48.5591 180.414 50.1833C183.383 52.2135 198.975 54.2437 205.657 55.0558C211.002 55.7055 221.248 52.0781 225.703 50.1833L236.097 49.3712L294.008 49.3712L329.645 49.3712C330.635 50.0479 334.099 51.645 340.039 52.6195C345.979 53.594 352.908 50.86 355.63 49.3712C357.61 49.5065 364.243 49.696 374.934 49.3712C388.298 48.9651 403.889 52.2135 420.965 55.0558C438.042 57.8981 458.83 51.8074 465.512 50.9954C472.194 50.1833 478.876 54.2437 481.846 55.0558C484.222 55.7055 495.705 55.3265 501.149 55.0558C502.387 55.5972 506.198 56.9236 511.543 57.8981C516.889 58.8726 521.195 52.6195 522.68 49.3712L567.969 49.3712C567.969 50.3186 570.493 53.1068 580.591 56.68C590.688 60.2531 597.667 53.2963 599.894 49.3712L712.746 49.3712C727.001 58.4666 747.888 55.0558 756.55 52.2135C761.747 53.4316 786.247 52.2135 792.929 49.3712C798.275 47.0973 809.016 48.4238 813.718 49.3712C827.973 55.2182 835.991 52.8903 838.218 50.9954C868.51 60.7405 895.387 53.973 905.038 49.3712C909.79 51.3202 926.817 50.1833 934.736 49.3712C964.434 48.6945 1026.21 47.9094 1035.71 50.1833C1045.21 52.4571 1083.72 51.1307 1101.79 50.1833C1110.7 53.7565 1116.88 51.6721 1118.86 50.1833Z" fill="#F7EDDC"/>
</svg>
