<svg width="19.500000" height="19.500000" viewBox="0 0 19.5 19.5" fill="none" xmlns="http://www.w3.org/2000/svg" xmlns:xlink="http://www.w3.org/1999/xlink">
	<desc>
			Created with Pixso.
	</desc>
	<defs/>
	<path id="vector" d="M1.5 4.75C1.5 2.95 2.95 1.5 4.75 1.5L14.75 1.5C16.54 1.5 18 2.95 18 4.75L18 14.75C18 16.54 16.54 18 14.75 18L4.75 18C2.95 18 1.5 16.54 1.5 14.75L1.5 4.75ZM4.75 0C2.12 0 0 2.12 0 4.75L0 14.75C0 17.37 2.12 19.5 4.75 19.5L14.75 19.5C17.37 19.5 19.5 17.37 19.5 14.75L19.5 4.75C19.5 2.12 17.37 0 14.75 0L4.75 0ZM14.03 7.78C14.32 7.48 14.32 7.01 14.03 6.71C13.73 6.42 13.26 6.42 12.96 6.71L8.55 11.13L6.57 8.77C6.31 8.45 5.83 8.4 5.52 8.67C5.2 8.93 5.15 9.41 5.42 9.72L7.92 12.73C8.05 12.89 8.25 12.98 8.46 12.99C8.67 13 8.88 12.92 9.03 12.78L14.03 7.78Z" fill="#8F8F8F" fill-opacity="1.000000" fill-rule="evenodd"/>
</svg>
