<svg width="40.000000" height="40.000000" viewBox="0 0 40 40" fill="none" xmlns="http://www.w3.org/2000/svg" xmlns:xlink="http://www.w3.org/1999/xlink">
	<desc>
			Created with Pixso.
	</desc>
	<defs>
		<clipPath id="clip4050_6167">
			<rect id="lsicon:drag-outline" rx="0.000000" width="38.000000" height="38.000000" transform="translate(1.000000 1.000000)" fill="white" fill-opacity="0"/>
		</clipPath>
	</defs>
	<rect id="lsicon:drag-outline" rx="0.000000" width="38.000000" height="38.000000" transform="translate(1.000000 1.000000)" fill="#FFFFFF" fill-opacity="0"/>
	<g clip-path="url(#clip4050_6167)">
		<path id="Vector" d="M24.38 11.87L24.38 11.88L24.37 11.88L24.37 11.87L24.38 11.87Z" stroke="#F7EDDC" stroke-opacity="1.000000" stroke-width="2.000000" stroke-linejoin="round"/>
		<path id="Vector" d="M24.81 12.31C24.69 12.43 24.54 12.5 24.37 12.5C24.2 12.5 24.05 12.43 23.93 12.31C23.81 12.2 23.75 12.04 23.75 11.87C23.75 11.7 23.81 11.54 23.93 11.43C24.05 11.31 24.2 11.25 24.37 11.25C24.54 11.25 24.69 11.31 24.81 11.43C24.93 11.54 25 11.7 25 11.87C25 12.04 24.93 12.2 24.81 12.31ZM24.38 19.98L24.38 20L24.37 20L24.37 19.98L24.38 19.98Z" stroke="#F7EDDC" stroke-opacity="1.000000" stroke-width="2.000000" stroke-linejoin="round"/>
		<path id="Vector" d="M24.81 20.42C24.69 20.54 24.54 20.61 24.37 20.61C24.2 20.61 24.05 20.54 23.93 20.42C23.81 20.31 23.75 20.15 23.75 19.98C23.75 19.82 23.81 19.66 23.93 19.54C24.05 19.42 24.2 19.36 24.37 19.36C24.54 19.36 24.69 19.42 24.81 19.54C24.93 19.66 25 19.82 25 19.98C25 20.15 24.93 20.31 24.81 20.42ZM24.38 28.12L24.38 28.13L24.37 28.13L24.37 28.12L24.38 28.12Z" stroke="#F7EDDC" stroke-opacity="1.000000" stroke-width="2.000000" stroke-linejoin="round"/>
		<path id="Vector" d="M24.81 28.56C24.69 28.68 24.54 28.75 24.37 28.75C24.2 28.75 24.05 28.68 23.93 28.56C23.81 28.45 23.75 28.29 23.75 28.12C23.75 27.95 23.81 27.79 23.93 27.68C24.05 27.56 24.2 27.5 24.37 27.5C24.54 27.5 24.69 27.56 24.81 27.68C24.93 27.79 25 27.95 25 28.12C25 28.29 24.93 28.45 24.81 28.56ZM15.63 11.87L15.63 11.88L15.62 11.88L15.62 11.87L15.63 11.87Z" stroke="#F7EDDC" stroke-opacity="1.000000" stroke-width="2.000000" stroke-linejoin="round"/>
		<path id="Vector" d="M16.06 12.31C15.94 12.43 15.79 12.5 15.62 12.5C15.45 12.5 15.3 12.43 15.18 12.31C15.06 12.2 15 12.04 15 11.87C15 11.7 15.06 11.54 15.18 11.43C15.3 11.31 15.45 11.25 15.62 11.25C15.79 11.25 15.94 11.31 16.06 11.43C16.18 11.54 16.25 11.7 16.25 11.87C16.25 12.04 16.18 12.2 16.06 12.31ZM15.63 19.98L15.63 20L15.62 20L15.62 19.98L15.63 19.98Z" stroke="#F7EDDC" stroke-opacity="1.000000" stroke-width="2.000000" stroke-linejoin="round"/>
		<path id="Vector" d="M16.06 20.42C15.94 20.54 15.79 20.61 15.62 20.61C15.45 20.61 15.3 20.54 15.18 20.42C15.06 20.31 15 20.15 15 19.98C15 19.82 15.06 19.66 15.18 19.54C15.3 19.42 15.45 19.36 15.62 19.36C15.79 19.36 15.94 19.42 16.06 19.54C16.18 19.66 16.25 19.82 16.25 19.98C16.25 20.15 16.18 20.31 16.06 20.42ZM15.63 28.12L15.63 28.13L15.62 28.13L15.62 28.12L15.63 28.12Z" stroke="#F7EDDC" stroke-opacity="1.000000" stroke-width="2.000000" stroke-linejoin="round"/>
		<path id="Vector" d="M16.06 28.56C15.94 28.68 15.79 28.75 15.62 28.75C15.45 28.75 15.3 28.68 15.18 28.56C15.06 28.45 15 28.29 15 28.12C15 27.95 15.06 27.79 15.18 27.68C15.3 27.56 15.45 27.5 15.62 27.5C15.79 27.5 15.94 27.56 16.06 27.68C16.18 27.79 16.25 27.95 16.25 28.12C16.25 28.29 16.18 28.45 16.06 28.56Z" stroke="#F7EDDC" stroke-opacity="1.000000" stroke-width="2.000000" stroke-linejoin="round"/>
	</g>
</svg>
