<svg width="24.000000" height="24.000000" viewBox="0 0 24 24" fill="none" xmlns="http://www.w3.org/2000/svg" xmlns:xlink="http://www.w3.org/1999/xlink">
	<desc>
			Created with Pixso.
	</desc>
	<defs>
		<clipPath id="clip4043_976">
			<rect id="carbon:result" rx="0.000000" width="23.000000" height="23.000000" transform="translate(0.500000 0.500000)" fill="white" fill-opacity="0"/>
		</clipPath>
	</defs>
	<rect id="carbon:result" rx="0.000000" width="23.000000" height="23.000000" transform="translate(0.500000 0.500000)" fill="#FFFFFF" fill-opacity="0"/>
	<g clip-path="url(#clip4043_976)">
		<path id="Vector" d="M10.5 17.25L16.5 17.25L16.5 18.75L10.5 18.75L10.5 17.25ZM7.5 17.25L9 17.25L9 18.75L7.5 18.75L7.5 17.25ZM10.5 13.5L16.5 13.5L16.5 15L10.5 15L10.5 13.5ZM7.5 13.5L9 13.5L9 15L7.5 15L7.5 13.5ZM10.5 9.75L16.5 9.75L16.5 11.25L10.5 11.25L10.5 9.75ZM7.5 9.75L9 9.75L9 11.25L7.5 11.25L7.5 9.75Z" fill="#9F472F" fill-opacity="1.000000" fill-rule="nonzero"/>
		<path id="Vector" d="M18.75 3.75L16.5 3.75L16.5 3C16.5 2.6 16.34 2.22 16.06 1.93C15.77 1.65 15.39 1.5 15 1.5L9 1.5C8.6 1.5 8.22 1.65 7.93 1.93C7.65 2.22 7.5 2.6 7.5 3L7.5 3.75L5.25 3.75C4.85 3.75 4.47 3.9 4.18 4.18C3.9 4.47 3.75 4.85 3.75 5.25L3.75 21C3.75 21.39 3.9 21.77 4.18 22.06C4.47 22.34 4.85 22.5 5.25 22.5L18.75 22.5C19.14 22.5 19.52 22.34 19.81 22.06C20.09 21.77 20.25 21.39 20.25 21L20.25 5.25C20.25 4.85 20.09 4.47 19.81 4.18C19.52 3.9 19.14 3.75 18.75 3.75ZM9 3L15 3L15 6L9 6L9 3ZM18.75 21L5.25 21L5.25 5.25L7.5 5.25L7.5 7.5L16.5 7.5L16.5 5.25L18.75 5.25L18.75 21Z" fill="#9F472F" fill-opacity="1.000000" fill-rule="evenodd"/>
	</g>
</svg>
