<svg width="20.000000" height="20.000000" viewBox="0 0 20 20" fill="none" xmlns="http://www.w3.org/2000/svg" xmlns:xlink="http://www.w3.org/1999/xlink">
	<desc>
			Created with Pixso.
	</desc>
	<defs>
		<clipPath id="clip4050_4044">
			<rect id="print_svgrepo.com" rx="0.000000" width="19.000000" height="19.000000" transform="matrix(-1 0 0 1 20.5 0.5)" fill="white" fill-opacity="0"/>
		</clipPath>
	</defs>
	<rect id="print_svgrepo.com" rx="0.000000" width="19.000000" height="19.000000" transform="matrix(-1 0 0 1 20.5 0.5)" fill="#FFFFFF" fill-opacity="0"/>
	<g clip-path="url(#clip4050_4044)">
		<path id="Vector" d="M6.66 12.5L13.33 12.5L13.33 15L13.33 17.5L6.66 17.5L6.66 15L6.66 12.5ZM6.66 15L3.33 15L3.33 7.5L6.66 7.5L13.33 7.5L16.66 7.5L16.66 15L13.33 15M13.33 7.5L13.33 3.33C13.33 2.87 12.96 2.5 12.49 2.5L7.49 2.5C7.03 2.5 6.66 2.87 6.66 3.33L6.66 7.5" stroke="#9F472F" stroke-opacity="1.000000" stroke-width="1.000000" stroke-linejoin="round"/>
	</g>
</svg>
