<svg width="18.000000" height="18.000000" viewBox="0 0 18 18" fill="none" xmlns="http://www.w3.org/2000/svg" xmlns:xlink="http://www.w3.org/1999/xlink">
	<desc>
			Created with Pixso.
	</desc>
	<defs>
		<clipPath id="clip4050_4012">
			<rect id="share-2_svgrepo.com" rx="0.000000" width="17.000000" height="17.000000" transform="translate(0.500000 0.500000)" fill="white" fill-opacity="0"/>
		</clipPath>
	</defs>
	<rect id="share-2_svgrepo.com" rx="0.000000" width="17.000000" height="17.000000" transform="translate(0.500000 0.500000)" fill="#FFFFFF" fill-opacity="0"/>
	<g clip-path="url(#clip4050_4012)">
		<path id="Vector" d="M9 4.86C9.29 4.86 9.54 4.61 9.54 4.32C9.54 4.02 9.29 3.78 9 3.78L9 4.86ZM14.58 9.36C14.58 9.06 14.33 8.82 14.04 8.82C13.74 8.82 13.5 9.06 13.5 9.36L14.58 9.36ZM14.04 4.86C14.33 4.86 14.58 4.61 14.58 4.32C14.58 4.02 14.33 3.78 14.04 3.78L14.04 4.86ZM11.09 3.78C10.79 3.78 10.55 4.02 10.55 4.32C10.55 4.61 10.79 4.86 11.09 4.86L11.09 3.78ZM14.58 4.32C14.58 4.02 14.33 3.78 14.04 3.78C13.74 3.78 13.5 4.02 13.5 4.32L14.58 4.32ZM13.5 7.3C13.5 7.6 13.74 7.84 14.04 7.84C14.33 7.84 14.58 7.6 14.58 7.3L13.5 7.3ZM14.42 4.7C14.63 4.49 14.63 4.14 14.42 3.93C14.21 3.72 13.86 3.72 13.65 3.93L14.42 4.7ZM8.61 8.97C8.4 9.18 8.4 9.53 8.61 9.74C8.82 9.95 9.17 9.95 9.38 9.74L8.61 8.97ZM9 3.78L6.83 3.78L6.83 4.86L9 4.86L9 3.78ZM6.83 3.78C4.95 3.78 3.41 5.31 3.41 7.2L4.5 7.2C4.5 5.9 5.54 4.86 6.83 4.86L6.83 3.78ZM3.41 7.2L3.41 11.52L4.5 11.52L4.5 7.2L3.41 7.2ZM3.41 11.52C3.41 13.4 4.95 14.94 6.83 14.94L6.83 13.86C5.54 13.86 4.5 12.81 4.5 11.52L3.41 11.52ZM6.83 14.94L11.16 14.94L11.16 13.86L6.83 13.86L6.83 14.94ZM11.16 14.94C13.04 14.94 14.58 13.4 14.58 11.52L13.5 11.52C13.5 12.81 12.45 13.86 11.16 13.86L11.16 14.94ZM14.58 11.52L14.58 9.36L13.5 9.36L13.5 11.52L14.58 11.52ZM14.04 3.78L11.09 3.78L11.09 4.86L14.04 4.86L14.04 3.78ZM13.5 4.32L13.5 7.3L14.58 7.3L14.58 4.32L13.5 4.32ZM13.65 3.93L8.61 8.97L9.38 9.74L14.42 4.7L13.65 3.93Z" fill="#9F472F" fill-opacity="1.000000" fill-rule="nonzero"/>
	</g>
</svg>
